<?xml version="1.0" encoding="iso-8859-1"?>
<!-- Generator: Adobe Illustrator 17.1.0, SVG Export Plug-In . SVG Version: 6.00 Build 0)  -->
<!DOCTYPE svg PUBLIC "-//W3C//DTD SVG 1.1//EN" "http://www.w3.org/Graphics/SVG/1.1/DTD/svg11.dtd">
<svg version="1.1" id="Layer_1" xmlns="http://www.w3.org/2000/svg" xmlns:xlink="http://www.w3.org/1999/xlink" x="0px" y="0px"
	 viewBox="0 0 50 50" style="enable-background:new 0 0 50 50;" xml:space="preserve">
<g>
	<path style="fill:none;" d="M43.64,20.277H16L28.298,7.979c1.825-1.825,1.825-4.784,0-6.61c-1.825-1.826-4.785-1.826-6.61,0
		L1.723,21.334c-0.118,0.097-0.244,0.179-0.354,0.289c-0.921,0.921-1.374,2.131-1.366,3.338c-0.008,1.207,0.445,2.417,1.366,3.338
		c0.111,0.111,0.237,0.193,0.356,0.29l19.963,19.964c1.825,1.825,4.785,1.825,6.61,0c1.825-1.825,1.825-4.785,0-6.61L15.98,29.625
		l27.66,0c2.597,0,4.702-2.092,4.702-4.674C48.342,22.369,46.237,20.277,43.64,20.277z"/>
</g>
</svg>
