<?xml version="1.0" encoding="iso-8859-1"?>
<!-- Generator: Adobe Illustrator 17.1.0, SVG Export Plug-In . SVG Version: 6.00 Build 0)  -->
<!DOCTYPE svg PUBLIC "-//W3C//DTD SVG 1.1//EN" "http://www.w3.org/Graphics/SVG/1.1/DTD/svg11.dtd">
<svg version="1.1" id="Layer_1" xmlns="http://www.w3.org/2000/svg" xmlns:xlink="http://www.w3.org/1999/xlink" x="0px" y="0px"
	 viewBox="0 0 50 50" style="enable-background:new 0 0 50 50;" xml:space="preserve">
<g>
	<path style="fill:none;" d="M25.234,0.022c-11.272,0-20.365,1.613-20.365,3.603l-0.02,38.636c0,1.453,1.104,2.635,2.517,2.787
		l0.033,2.046c-0.058,0.225-0.096,0.448-0.096,0.665c0,1.556,1.616,2.16,3.172,2.16c0.178,0,0.351-0.021,0.52-0.052h2.385
		c0.169,0.032,0.342,0.052,0.52,0.052s0.351-0.021,0.52-0.052h0.193l0.118-0.087c0.618-0.192,1.151-0.579,1.505-1.104l0.812-0.596
		v-3.001h15.869v2.307l0.461,0.48c0.239,0.985,0.928,1.751,1.9,1.979l0.021,0.022h0.079c0.164,0.032,0.334,0.052,0.512,0.052
		s0.351-0.021,0.52-0.052h2.713c0.169,0.032,0.342,0.052,0.52,0.052c0.178,0,0.351-0.021,0.52-0.052h0.07l0.017-0.017
		c1.087-0.239,1.939-1.104,2.155-2.199l0.222-0.227l0.02-2.381c1.384-0.179,2.457-1.348,2.457-2.781L45.11,3.625
		C45.11,1.635,36.506,0.022,25.234,0.022z M16.712,3.492h17.834c0.778,0,1.409,0.631,1.409,1.409c0,0.778-0.631,1.204-1.409,1.204
		H16.712c-0.778,0-1.409-0.426-1.409-1.204C15.303,4.123,15.934,3.492,16.712,3.492z M15.01,36.789h-4.798
		c-0.937,0-1.115-0.65-1.115-1.452c0-0.802,0.178-1.453,1.115-1.453h4.798c0.937,0,1.115,0.65,1.115,1.453
		C16.125,36.139,15.946,36.789,15.01,36.789z M31.105,30.39l3.818-6.54h-3.862l-4.213,6.54h-8.025l4.213-6.54h-4.125l-4.213,6.54
		H9.76L9.731,12.436c0-1.556,1.261-2.818,2.817-2.818h24.865c1.556,0,2.817,1.261,2.817,2.818l0.009,17.954H31.105z M39.799,36.789
		h-4.798c-0.937,0-1.115-0.65-1.115-1.452c0-0.802,0.178-1.453,1.115-1.453h4.798c0.937,0,1.115,0.65,1.115,1.453
		C40.914,36.139,40.736,36.789,39.799,36.789z"/>
</g>
</svg>
