<?xml version="1.0" encoding="iso-8859-1"?>
<!-- Generator: Adobe Illustrator 17.1.0, SVG Export Plug-In . SVG Version: 6.00 Build 0)  -->
<!DOCTYPE svg PUBLIC "-//W3C//DTD SVG 1.1//EN" "http://www.w3.org/Graphics/SVG/1.1/DTD/svg11.dtd">
<svg version="1.1" id="Layer_1" xmlns="http://www.w3.org/2000/svg" xmlns:xlink="http://www.w3.org/1999/xlink" x="0px" y="0px"
	 viewBox="0 0 50 50" style="enable-background:new 0 0 50 50;" xml:space="preserve">
<g>
	<path style="fill:none;" d="M24.813,31.722h0.027c0.001,0,0.002,0,0.002,0C24.831,31.722,24.825,31.722,24.813,31.722z
		 M49.357,31.722H41.66V8.368c0-0.834-0.653-1.511-1.458-1.511H34.12c-0.805,0-1.458,0.677-1.458,1.511v23.355H24.84
		c-0.435,0.085-0.917,0.34-0.256,1.019c2.182,2.242,10.192,10.683,11.91,12.448c0.45,0.463,0.683,0.465,1.141-0.006
		c1.744-1.791,9.84-10.321,11.976-12.516C50.314,31.947,49.611,31.722,49.357,31.722z M24.843,31.722
		C25.646,31.72,25.271,31.639,24.843,31.722L24.843,31.722z M0.634,18.166c-0.001,0-0.001,0-0.002,0H0.605
		C0.617,18.166,0.623,18.166,0.634,18.166z M0.634,18.166C1.062,18.25,1.438,18.169,0.634,18.166L0.634,18.166z M25.404,17.221
		C23.268,15.026,15.172,6.744,13.428,4.953c-0.458-0.471-0.691-0.469-1.141-0.006c-1.719,1.765-9.728,9.959-11.91,12.201
		c-0.661,0.679-0.179,0.934,0.255,1.019h8.304v23.351c0,0.835,0.653,1.512,1.458,1.512h6.117c0.805,0,1.458-0.677,1.458-1.512
		V18.166h7.18C25.402,18.166,26.105,17.941,25.404,17.221z"/>
</g>
</svg>
