<?xml version="1.0" encoding="iso-8859-1"?>
<!-- Generator: Adobe Illustrator 17.1.0, SVG Export Plug-In . SVG Version: 6.00 Build 0)  -->
<!DOCTYPE svg PUBLIC "-//W3C//DTD SVG 1.1//EN" "http://www.w3.org/Graphics/SVG/1.1/DTD/svg11.dtd">
<svg version="1.1" id="Layer_1" xmlns="http://www.w3.org/2000/svg" xmlns:xlink="http://www.w3.org/1999/xlink" x="0px" y="0px"
	 viewBox="0 0 50 50" style="enable-background:new 0 0 50 50;" xml:space="preserve">
<g>
	<path style="fill:none;" d="M25.008,0.071c-13.752,0-24.9,11.148-24.9,24.899c0,13.752,11.148,24.9,24.9,24.9
		c13.751,0,24.899-11.148,24.899-24.9C49.908,11.22,38.759,0.071,25.008,0.071z M24.855,42.551c-9.705,0-17.572-7.867-17.572-17.572
		c0-9.705,7.867-17.572,17.572-17.572c9.705,0,17.572,7.867,17.572,17.572C42.427,34.684,34.56,42.551,24.855,42.551z M33.46,25.837
		h-7.899v-7.971c0-0.828-0.7-1.499-1.563-1.499c-0.863,0-1.563,0.671-1.563,1.499v9.414c0,0.338,0.121,0.647,0.319,0.898
		c0.259,0.467,0.738,0.785,1.293,0.785h9.414c0.828,0,1.499-0.7,1.499-1.563C34.959,26.537,34.288,25.837,33.46,25.837z"/>
</g>
</svg>
