<?xml version="1.0" encoding="iso-8859-1"?>
<!-- Generator: Adobe Illustrator 17.1.0, SVG Export Plug-In . SVG Version: 6.00 Build 0)  -->
<!DOCTYPE svg PUBLIC "-//W3C//DTD SVG 1.1//EN" "http://www.w3.org/Graphics/SVG/1.1/DTD/svg11.dtd">
<svg version="1.1" id="Layer_1" xmlns="http://www.w3.org/2000/svg" xmlns:xlink="http://www.w3.org/1999/xlink" x="0px" y="0px"
	 viewBox="0 0 50 50" style="enable-background:new 0 0 50 50;" xml:space="preserve">
<g>
	<path style="fill:none;" d="M32.763,24.934L48.297,9.4c1.072-1.072,1.609-2.367,1.609-3.883c0-1.517-0.536-2.811-1.609-3.883
		c-1.072-1.072-2.367-1.609-3.883-1.609c-1.516,0-2.811,0.536-3.883,1.609L24.996,17.167L9.462,1.633
		C8.39,0.561,7.095,0.024,5.579,0.024S2.768,0.561,1.695,1.633C0.623,2.705,0.087,4,0.087,5.516c0,1.517,0.536,2.811,1.609,3.883
		l15.534,15.534L1.695,40.467c-1.072,1.072-1.609,2.367-1.609,3.883s0.536,2.811,1.609,3.883c1.072,1.072,2.367,1.609,3.883,1.609
		s2.811-0.536,3.883-1.609l15.534-15.534L40.53,48.234c2.145,2.145,5.622,2.145,7.767,0c2.145-2.145,2.145-5.622,0-7.767
		L32.763,24.934z"/>
</g>
</svg>
