<?xml version="1.0" encoding="iso-8859-1"?>
<!-- Generator: Adobe Illustrator 17.1.0, SVG Export Plug-In . SVG Version: 6.00 Build 0)  -->
<!DOCTYPE svg PUBLIC "-//W3C//DTD SVG 1.1//EN" "http://www.w3.org/Graphics/SVG/1.1/DTD/svg11.dtd">
<svg version="1.1" id="Layer_1" xmlns="http://www.w3.org/2000/svg" xmlns:xlink="http://www.w3.org/1999/xlink" x="0px" y="0px"
	 viewBox="0 0 50 50" style="enable-background:new 0 0 50 50;" xml:space="preserve">
<g>
	<path style="fill:none;" d="M46.814,17.731l-0.018-0.02l-1.809-0.01l-4.04-15.091c-0.005-0.027-0.015-0.051-0.021-0.077
		L40.773,1.96L40.75,1.944c-0.454-1.129-1.472-1.918-2.66-1.918c-0.004,0-0.007,0.001-0.012,0.001l-0.035-0.025h-26.1l-0.03,0.025
		C10.43,0.036,9.222,1.275,9.048,2.868L5.077,17.7l-1.804,0.01l-0.022,0.025c-0.014,0-0.027-0.005-0.042-0.005
		c-1.61,0-2.916,1.446-2.916,3.229c0,0.048,0.011,0.092,0.013,0.139v20.768h2.919v4.567C3.218,46.526,3.2,46.616,3.2,46.711
		s0.018,0.185,0.025,0.278v0.047l0.005,0.005c0.152,1.626,1.378,2.898,2.886,2.898c0.185,0,0.365-0.024,0.541-0.06h1.825
		c0.176,0.037,0.355,0.06,0.541,0.06c1.477,0,2.684-1.22,2.876-2.796l0.057-0.064v-5.214h26.151v4.567
		c-0.007,0.093-0.025,0.183-0.025,0.278s0.018,0.185,0.025,0.278v0.047l0.005,0.005c0.151,1.626,1.378,2.898,2.885,2.898
		c0.185,0,0.365-0.024,0.541-0.06h1.826c0.176,0.037,0.355,0.06,0.541,0.06c1.476,0,2.683-1.219,2.876-2.796l0.058-0.064v-5.214
		h2.878V21.079c0.001-0.041,0.011-0.079,0.011-0.12C49.726,19.177,48.423,17.733,46.814,17.731z M15.615,7.267
		c0.162-0.453,0.56-0.774,1.027-0.774h17.257c0.467,0,0.865,0.32,1.027,0.774l3.19,10.427h-25.6L15.615,7.267z M5.844,25.747h4.965
		c0.97,0,1.154,0.745,1.154,1.664c0,0.919-0.184,1.665-1.154,1.665H5.844c-0.97,0-1.154-0.746-1.154-1.665
		C4.691,26.492,4.875,25.747,5.844,25.747z M44.815,38.731H5.255c-0.482,0-0.573-0.37-0.573-0.828c0-0.457,0.091-0.827,0.573-0.827
		h39.559c0.482,0,0.574,0.37,0.574,0.827C45.388,38.36,45.297,38.731,44.815,38.731z M44.238,29.076h-4.965
		c-0.97,0-1.154-0.746-1.154-1.665c0-0.919,0.184-1.664,1.154-1.664h4.965c0.97,0,1.154,0.745,1.154,1.664
		C45.391,28.33,45.207,29.076,44.238,29.076z"/>
</g>
</svg>
