<?xml version="1.0" encoding="iso-8859-1"?>
<!-- Generator: Adobe Illustrator 17.1.0, SVG Export Plug-In . SVG Version: 6.00 Build 0)  -->
<!DOCTYPE svg PUBLIC "-//W3C//DTD SVG 1.1//EN" "http://www.w3.org/Graphics/SVG/1.1/DTD/svg11.dtd">
<svg version="1.1" id="Layer_1" xmlns="http://www.w3.org/2000/svg" xmlns:xlink="http://www.w3.org/1999/xlink" x="0px" y="0px"
	 viewBox="0 0 50 50" style="enable-background:new 0 0 50 50;" xml:space="preserve">
<g>
	<path style="fill:none;" d="M45.177,0.086H4.818c-2.572,0-4.657,2.085-4.657,4.657v40.359c0,2.572,2.085,4.657,4.657,4.657h40.359
		c2.572,0,4.657-2.085,4.657-4.657V4.742C49.834,2.171,47.749,0.086,45.177,0.086z M11.051,19.772c0.377-0.388,0.794-1,1.252-1.835
		c0.457-0.834,0.966-1.949,1.526-3.345c0.56-1.395,1.184-3.144,1.87-5.249c0.8,0.572,1.578,0.926,2.333,1.063
		c0.32,0.046,0.492,0.154,0.515,0.326c0.022,0.172-0.126,0.349-0.446,0.532c-0.115,0.069-0.269,0.212-0.463,0.429
		c-0.195,0.218-0.486,0.646-0.875,1.286c-0.389,0.641-0.898,1.55-1.527,2.727c-0.629,1.178-1.424,2.762-2.384,4.751l4.322-0.069
		c0.32-0.594,0.6-1.126,0.841-1.595c0.24-0.468,0.446-0.903,0.617-1.304c0.172-0.4,0.326-0.789,0.463-1.166
		c0.137-0.377,0.274-0.783,0.412-1.218c0.389,0.297,0.732,0.543,1.029,0.737c0.297,0.195,0.629,0.36,0.995,0.497
		c0.297,0.115,0.451,0.263,0.463,0.446c0.011,0.183-0.109,0.32-0.36,0.412c-0.069,0.023-0.154,0.075-0.257,0.154
		c-0.103,0.08-0.257,0.257-0.463,0.532c-0.206,0.274-0.475,0.669-0.806,1.184c-0.332,0.515-0.772,1.224-1.321,2.127
		c-0.549,0.904-1.23,2.024-2.041,3.362c-0.812,1.338-1.778,2.956-2.899,4.854l6.964-1.235c-0.321,0.64-0.435,1.327-0.343,2.058
		l-5.798,0.926c-0.526,0.092-1.081,0.218-1.664,0.377c-0.583,0.16-1.069,0.32-1.458,0.48c-0.023-0.388-0.109-0.783-0.257-1.183
		c-0.149-0.4-0.338-0.783-0.566-1.149c0.228-0.023,0.48-0.143,0.755-0.36c0.274-0.217,0.618-0.606,1.029-1.166
		c0.412-0.56,0.914-1.321,1.509-2.281c0.594-0.961,1.326-2.218,2.195-3.774l-2.813,0.137c-0.664,0.046-1.207,0.098-1.63,0.154
		c-0.423,0.057-0.818,0.143-1.184,0.257c-0.023-0.389-0.08-0.755-0.172-1.098c-0.092-0.343-0.229-0.709-0.412-1.098
		C10.325,20.389,10.674,20.161,11.051,19.772z M21.188,35.689c-0.823,0.115-1.698,0.28-2.624,0.497
		c-0.926,0.218-1.847,0.452-2.762,0.703c-0.915,0.251-1.807,0.526-2.676,0.823c-0.869,0.297-1.659,0.594-2.367,0.892
		c-0.046-0.458-0.137-0.887-0.274-1.286c-0.137-0.4-0.343-0.863-0.617-1.389c0.777-0.046,1.641-0.143,2.59-0.292
		c0.949-0.149,1.921-0.343,2.916-0.583c0.995-0.24,1.995-0.509,3.002-0.806c1.006-0.297,1.944-0.606,2.813-0.926
		c-0.092,0.389-0.132,0.778-0.12,1.166C21.079,34.878,21.12,35.278,21.188,35.689z M34.602,40.115
		c-0.618-0.435-1.344-0.898-2.178-1.389c-0.835-0.492-1.721-0.966-2.659-1.424c-0.938-0.457-1.904-0.897-2.899-1.321
		c-0.995-0.423-1.95-0.806-2.864-1.149l0.995-1.75c0.709,0.274,1.555,0.623,2.539,1.046c0.983,0.423,1.99,0.881,3.019,1.372
		c1.029,0.492,2.018,0.984,2.967,1.475c0.949,0.492,1.732,0.932,2.35,1.321L34.602,40.115z M26.78,29.343l0.995-1.715
		c0.663,0.297,1.338,0.606,2.024,0.926c0.686,0.321,1.366,0.646,2.041,0.978c0.674,0.332,1.315,0.664,1.921,0.995
		c0.606,0.332,1.172,0.646,1.698,0.943l-1.132,1.887c-0.343-0.297-0.801-0.617-1.372-0.961c-0.572-0.343-1.195-0.697-1.87-1.063
		c-0.675-0.366-1.384-0.72-2.127-1.063C28.215,29.926,27.489,29.617,26.78,29.343z M40.331,28.108
		c-0.252,0.458-0.435,0.881-0.549,1.269c-1.944-0.8-3.659-1.635-5.146-2.504c-1.487-0.869-2.836-1.841-4.048-2.916
		c-1.029,0.915-2.213,1.813-3.551,2.693c-1.338,0.881-3.013,1.835-5.026,2.865c-0.343-0.8-0.881-1.498-1.612-2.093
		c1.029-0.389,1.955-0.76,2.779-1.115c0.823-0.354,1.578-0.72,2.264-1.098c0.686-0.377,1.332-0.777,1.938-1.201
		c0.606-0.423,1.206-0.886,1.801-1.389c-0.732-0.755-1.401-1.555-2.007-2.401c-0.606-0.846-1.207-1.761-1.801-2.744l1.544-0.961
		c1.143,1.967,2.344,3.614,3.602,4.94c0.869-0.869,1.721-1.892,2.556-3.07c0.835-1.178,1.527-2.338,2.076-3.482h-9.16
		c-0.389,0.915-0.869,1.91-1.441,2.984c-0.572,1.075-1.189,2.081-1.853,3.019c-0.252-0.32-0.52-0.577-0.806-0.772
		c-0.286-0.194-0.658-0.348-1.115-0.463c1.372-1.486,2.453-3.07,3.242-4.751c0.789-1.681,1.401-3.676,1.835-5.986
		c0.8,0.503,1.601,0.778,2.401,0.823c0.251,0.023,0.389,0.103,0.412,0.24c0.022,0.137-0.069,0.274-0.274,0.412
		c-0.298,0.183-0.566,0.463-0.806,0.841c-0.24,0.377-0.532,1.001-0.875,1.87h5.763c1.395,0,2.544-0.034,3.448-0.103
		c0.903-0.069,1.686-0.172,2.35-0.309c-0.298,0.778-0.658,1.595-1.081,2.453c-0.423,0.858-0.909,1.721-1.458,2.59
		c-0.549,0.869-1.144,1.727-1.784,2.573c-0.641,0.846-1.327,1.647-2.058,2.401c1.166,0.984,2.487,1.813,3.962,2.487
		c1.475,0.675,3.219,1.286,5.232,1.835C40.833,27.296,40.582,27.651,40.331,28.108z"/>
</g>
</svg>
