<?xml version="1.0" encoding="iso-8859-1"?>
<!-- Generator: Adobe Illustrator 17.1.0, SVG Export Plug-In . SVG Version: 6.00 Build 0)  -->
<!DOCTYPE svg PUBLIC "-//W3C//DTD SVG 1.1//EN" "http://www.w3.org/Graphics/SVG/1.1/DTD/svg11.dtd">
<svg version="1.1" id="Layer_1" xmlns="http://www.w3.org/2000/svg" xmlns:xlink="http://www.w3.org/1999/xlink" x="0px" y="0px"
	 viewBox="0 0 50 50" style="enable-background:new 0 0 50 50;" xml:space="preserve">
<g>
	<path style="fill:none;" d="M13.307,9.868h34.539c1.145,0,2.073-0.928,2.073-2.073V3.65c0-1.144-0.928-2.072-2.073-2.072H13.307
		c-1.145,0-2.072,0.928-2.072,2.072v4.145C11.235,8.94,12.162,9.868,13.307,9.868z M6.355,1.578H2.211
		c-1.144,0-2.073,0.928-2.073,2.072v4.145c0,1.145,0.928,2.073,2.073,2.073h4.145c1.145,0,2.073-0.928,2.073-2.073V3.65
		C8.428,2.505,7.501,1.578,6.355,1.578z M13.307,29.21h34.539c1.145,0,2.073-0.929,2.073-2.073v-4.145
		c0-1.145-0.928-2.072-2.073-2.072H13.307c-1.145,0-2.072,0.927-2.072,2.072v4.145C11.235,28.281,12.162,29.21,13.307,29.21z
		 M6.355,20.92H2.211c-1.144,0-2.073,0.927-2.073,2.072v4.145c0,1.144,0.928,2.073,2.073,2.073h4.145
		c1.145,0,2.073-0.929,2.073-2.073v-4.145C8.428,21.847,7.501,20.92,6.355,20.92z M47.857,40.262h-34.54
		c-1.145,0-2.073,0.928-2.073,2.072v4.145c0,1.144,0.928,2.072,2.073,2.072h34.54c1.145,0,2.073-0.928,2.073-2.072v-4.145
		C49.93,41.19,49.002,40.262,47.857,40.262z M6.355,40.262H2.211c-1.144,0-2.073,0.928-2.073,2.072v4.145
		c0,1.144,0.928,2.072,2.073,2.072h4.145c1.145,0,2.073-0.928,2.073-2.072v-4.145C8.428,41.19,7.501,40.262,6.355,40.262z"/>
</g>
</svg>
