<?xml version="1.0" encoding="iso-8859-1"?>
<!-- Generator: Adobe Illustrator 17.1.0, SVG Export Plug-In . SVG Version: 6.00 Build 0)  -->
<!DOCTYPE svg PUBLIC "-//W3C//DTD SVG 1.1//EN" "http://www.w3.org/Graphics/SVG/1.1/DTD/svg11.dtd">
<svg version="1.1" id="Layer_1" xmlns="http://www.w3.org/2000/svg" xmlns:xlink="http://www.w3.org/1999/xlink" x="0px" y="0px"
	 viewBox="0 0 50 50" style="enable-background:new 0 0 50 50;" xml:space="preserve">
<g>
	<path style="fill:none;" d="M38.388,21.65c-0.11-0.11-0.236-0.192-0.354-0.289L18.078,1.405c-1.825-1.825-4.783-1.825-6.607,0
		c-1.824,1.825-1.824,4.782,0,6.607l16.974,16.974L11.471,41.959c-1.824,1.825-1.824,4.783,0,6.607c1.825,1.824,4.783,1.824,6.607,0
		l19.954-19.953c0.119-0.097,0.245-0.18,0.356-0.291c0.921-0.921,1.374-2.13,1.366-3.336C39.762,23.78,39.309,22.571,38.388,21.65z"
		/>
</g>
</svg>
