<?xml version="1.0" encoding="iso-8859-1"?>
<!-- Generator: Adobe Illustrator 17.1.0, SVG Export Plug-In . SVG Version: 6.00 Build 0)  -->
<!DOCTYPE svg PUBLIC "-//W3C//DTD SVG 1.1//EN" "http://www.w3.org/Graphics/SVG/1.1/DTD/svg11.dtd">
<svg version="1.1" id="Layer_1" xmlns="http://www.w3.org/2000/svg" xmlns:xlink="http://www.w3.org/1999/xlink" x="0px" y="0px"
	 viewBox="0 0 50 50" style="enable-background:new 0 0 50 50;" xml:space="preserve">
<g>
	<path style="fill:none;" d="M25,0.057c-13.746,0-24.929,11.183-24.929,24.929c0,13.746,11.183,24.929,24.929,24.929
		S49.93,38.733,49.93,24.987C49.93,11.24,38.747,0.057,25,0.057z M27.996,44.22l-2.86-7.02l-2.968,7.045
		c-8.425-1.236-15.1-7.868-16.401-16.272l7.053-3.05l-7.036-3.041c1.349-8.373,8.037-14.964,16.458-16.166l2.893,6.692l2.787-6.668
		c8.471,1.282,15.154,8.019,16.353,16.515l-6.277,2.667l6.295,2.676C43.144,36.125,36.471,42.904,27.996,44.22z M25.112,16.693
		c-4.597,0-8.323,3.727-8.323,8.324c0,4.597,3.726,8.323,8.323,8.323c4.597,0,8.323-3.727,8.323-8.323
		C33.435,20.419,29.709,16.693,25.112,16.693z"/>
</g>
</svg>
