<?xml version="1.0" encoding="iso-8859-1"?>
<!-- Generator: Adobe Illustrator 17.1.0, SVG Export Plug-In . SVG Version: 6.00 Build 0)  -->
<!DOCTYPE svg PUBLIC "-//W3C//DTD SVG 1.1//EN" "http://www.w3.org/Graphics/SVG/1.1/DTD/svg11.dtd">
<svg version="1.1" id="Layer_1" xmlns="http://www.w3.org/2000/svg" xmlns:xlink="http://www.w3.org/1999/xlink" x="0px" y="0px"
	 viewBox="0 0 50 50" style="enable-background:new 0 0 50 50;" xml:space="preserve">
<path style="fill:none;" d="M43.076,18.176c0-10.007-8.11-18.117-18.117-18.117c-10.007,0-18.117,8.11-18.117,18.117
	c0,5.27,2.265,10.001,5.859,13.311c0.002,0.007-0.011,0.025-0.004,0.029c9.631,8.32,12.256,18.352,12.263,18.379v0.002l0.002,0.002
	v-0.004c0.004-0.027,2.63-10.021,12.261-18.343c0.011-0.011-0.011-0.045-0.007-0.06C40.809,28.181,43.076,23.448,43.076,18.176z
	 M24.96,24.255c-3.358,0-6.078-2.723-6.078-6.078c0-3.359,2.72-6.078,6.078-6.078c3.356,0,6.077,2.718,6.077,6.078
	C31.037,21.531,28.315,24.255,24.96,24.255z"/>
</svg>
