<?xml version="1.0" encoding="iso-8859-1"?>
<!-- Generator: Adobe Illustrator 17.1.0, SVG Export Plug-In . SVG Version: 6.00 Build 0)  -->
<!DOCTYPE svg PUBLIC "-//W3C//DTD SVG 1.1//EN" "http://www.w3.org/Graphics/SVG/1.1/DTD/svg11.dtd">
<svg version="1.1" id="Layer_1" xmlns="http://www.w3.org/2000/svg" xmlns:xlink="http://www.w3.org/1999/xlink" x="0px" y="0px"
	 viewBox="0 0 50 50" style="enable-background:new 0 0 50 50;" xml:space="preserve">
<g>
	<path style="fill:none;" d="M47.061,4.021H2.974c-1.569,0-2.841,1.283-2.841,2.865V43.01c0,1.582,1.272,2.865,2.841,2.865h44.087
		c1.569,0,2.842-1.283,2.842-2.865V6.886C49.903,5.304,48.63,4.021,47.061,4.021z M42.372,18.034l-16.277,9.77
		c-0.583,0.595-1.527,0.595-2.111,0.002l-16.25-9.818c-0.583-0.594-0.584-1.558-0.001-2.152c0.582-0.595,1.527-0.595,2.11-0.001
		l15.194,8.742l15.222-8.693c0.583-0.595,1.527-0.595,2.111-0.001C42.954,16.477,42.955,17.44,42.372,18.034z"/>
</g>
</svg>
