<?xml version="1.0" encoding="iso-8859-1"?>
<!-- Generator: Adobe Illustrator 17.1.0, SVG Export Plug-In . SVG Version: 6.00 Build 0)  -->
<!DOCTYPE svg PUBLIC "-//W3C//DTD SVG 1.1//EN" "http://www.w3.org/Graphics/SVG/1.1/DTD/svg11.dtd">
<svg version="1.1" id="Layer_1" xmlns="http://www.w3.org/2000/svg" xmlns:xlink="http://www.w3.org/1999/xlink" x="0px" y="0px"
	 viewBox="0 0 50 50" style="enable-background:new 0 0 50 50;" xml:space="preserve">
<g>
	<path style="fill:none;" d="M40.596,44.531h0.571c1.497,0,2.711-1.214,2.711-2.711V6.773c0-1.497-1.214-2.711-2.711-2.711
		L30.224,4.058c-0.576-2.357-2.702-4.021-5.236-4.021c-2.521,0-4.638,1.689-5.226,4.027L8.859,4.063
		c-1.497,0-2.711,1.214-2.711,2.711V41.82c0,1.497,1.214,2.711,2.711,2.711h0.568L4.83,49.88h5.35l5.38-5.35H34.46l5.327,5.384
		h5.434L40.596,44.531z M15.866,36.506h-4.605c-0.899,0-1.07-0.624-1.07-1.394c0-0.77,0.171-1.394,1.07-1.394h4.605
		c0.899,0,1.07,0.624,1.07,1.394C16.936,35.882,16.765,36.506,15.866,36.506z M23.655,27.025H11.523c0,0,0.003-14.139,0.003-15.351
		c0-1.213,0.983-2.195,2.195-2.195l9.933-0.019V27.025z M22.291,5.45c0-1.498,1.214-2.712,2.712-2.712
		c1.498,0,2.712,1.214,2.712,2.712c0,1.498-1.214,2.712-2.712,2.712C23.505,8.162,22.291,6.948,22.291,5.45z M26.351,9.46
		l9.933,0.019c1.213,0,2.196,0.983,2.196,2.195c0,1.212,0.003,15.351,0.003,15.351H26.351V9.46z M38.781,36.506h-4.605
		c-0.899,0-1.07-0.624-1.07-1.394c0-0.77,0.171-1.394,1.07-1.394h4.605c0.899,0,1.07,0.624,1.07,1.394
		C39.851,35.882,39.68,36.506,38.781,36.506z"/>
</g>
</svg>
