<?xml version="1.0" encoding="iso-8859-1"?>
<!-- Generator: Adobe Illustrator 17.1.0, SVG Export Plug-In . SVG Version: 6.00 Build 0)  -->
<!DOCTYPE svg PUBLIC "-//W3C//DTD SVG 1.1//EN" "http://www.w3.org/Graphics/SVG/1.1/DTD/svg11.dtd">
<svg version="1.1" id="Layer_1" xmlns="http://www.w3.org/2000/svg" xmlns:xlink="http://www.w3.org/1999/xlink" x="0px" y="0px"
	 viewBox="0 0 50 50" style="enable-background:new 0 0 50 50;" xml:space="preserve">
<g>
	<path style="fill:none;" d="M49.908,27.38l-0.001-4.795l-0.003-0.003c-0.011-1.572-1.286-2.843-2.86-2.843
		c-0.079,0-0.153,0.017-0.231,0.023H30.677l2.171-0.001L3.13,19.759c-0.065-0.004-0.127-0.02-0.194-0.02
		c-1.581,0-2.862,1.281-2.862,2.862c0,0.124,0.021,0.234,0.036,0.349v4.095c-0.015,0.114-0.036,0.225-0.036,0.349
		c0,1.581,1.281,2.862,2.862,2.862c0.187,0,0.369-0.021,0.545-0.055l29.368,0.003h-2.172l15.885,0.003
		c0.157,0.027,0.317,0.049,0.482,0.049c1.581,0,2.862-1.282,2.862-2.862c0-0.004-0.001-0.007-0.001-0.011L49.908,27.38z"/>
</g>
</svg>
