<?xml version="1.0" encoding="iso-8859-1"?>
<!-- Generator: Adobe Illustrator 17.1.0, SVG Export Plug-In . SVG Version: 6.00 Build 0)  -->
<!DOCTYPE svg PUBLIC "-//W3C//DTD SVG 1.1//EN" "http://www.w3.org/Graphics/SVG/1.1/DTD/svg11.dtd">
<svg version="1.1" id="Layer_1" xmlns="http://www.w3.org/2000/svg" xmlns:xlink="http://www.w3.org/1999/xlink" x="0px" y="0px"
	 viewBox="0 0 50 50" style="enable-background:new 0 0 50 50;" xml:space="preserve">
<g>
	<path style="fill:none;" d="M32.63,36.243c-0.881,1.004-1.686,1.97-2.418,2.885c3.178,0.486,5.105,1.487,5.105,2.92
		c0,1.991-3.98,3.333-9.678,3.425c-0.417,0.659-0.637,1.041-0.638,1.047v0.005L25,46.521v-0.002
		c-0.002-0.005-0.219-0.389-0.632-1.048c-5.669-0.1-9.642-1.439-9.642-3.423c0-1.368,2.027-2.351,5.147-2.861
		c-0.705-0.885-1.479-1.819-2.327-2.791c-5.89,1.179-10.177,3.566-10.177,6.254c0,3.814,8.253,7.292,17.859,7.292
		s17.394-3.478,17.394-7.292C42.622,39.841,38.589,37.359,32.63,36.243z M13.845,28.566c8.738,7.548,11.119,16.649,11.125,16.673
		v0.002l0.002,0.002v-0.004c0.004-0.024,2.386-9.091,11.123-16.641c0.01-0.01-0.01-0.04-0.006-0.054
		c3.26-3.003,5.317-7.297,5.317-12.08c0-9.078-7.357-16.436-16.436-16.436c-9.079,0-16.436,7.357-16.436,16.436
		c0,4.781,2.055,9.073,5.315,12.076C13.851,28.546,13.839,28.562,13.845,28.566z M24.971,10.951c3.045,0,5.514,2.466,5.514,5.513
		c0,3.043-2.469,5.514-5.514,5.514c-3.046,0-5.514-2.471-5.514-5.514C19.458,13.417,21.925,10.951,24.971,10.951z"/>
</g>
</svg>
