<?xml version="1.0" encoding="iso-8859-1"?>
<!-- Generator: Adobe Illustrator 17.1.0, SVG Export Plug-In . SVG Version: 6.00 Build 0)  -->
<!DOCTYPE svg PUBLIC "-//W3C//DTD SVG 1.1//EN" "http://www.w3.org/Graphics/SVG/1.1/DTD/svg11.dtd">
<svg version="1.1" id="Layer_1" xmlns="http://www.w3.org/2000/svg" xmlns:xlink="http://www.w3.org/1999/xlink" x="0px" y="0px"
	 viewBox="0 0 50 50" style="enable-background:new 0 0 50 50;" xml:space="preserve">
<g>
	<path style="fill:none;" d="M48.309,1.63c-2.098-2.098-5.5-2.098-7.599,0c-0.065,0.065-0.109,0.14-0.169,0.207L32.2,10.178
		l-9.463-2.341c0.68-1.289,0.493-2.915-0.592-4c-1.333-1.333-3.495-1.333-4.829,0c-0.666,0.666-0.999,1.539-1,2.412L4.943,3.434
		L1.088,7.288l20.773,13.228l-9.098,9.098l0.018-0.077L3.295,29.59l-3.228,3.33l10.463,6.473v0l0,0l0,0l6.532,10.523l3.33-3.127
		l0.023-9.515l-0.196,0.042l9.221-9.221l13.226,20.769l3.854-3.854l-2.803-11.327c0.886,0.009,1.774-0.321,2.45-0.997
		c1.333-1.333,1.333-3.495,0-4.828c-1.094-1.094-2.74-1.275-4.034-0.574l-2.357-9.526l8.514-8.514l-0.001-0.001
		c0.006-0.006,0.013-0.01,0.019-0.016C50.407,7.13,50.407,3.728,48.309,1.63z"/>
</g>
</svg>
