<?xml version="1.0" encoding="iso-8859-1"?>
<!-- Generator: Adobe Illustrator 17.1.0, SVG Export Plug-In . SVG Version: 6.00 Build 0)  -->
<!DOCTYPE svg PUBLIC "-//W3C//DTD SVG 1.1//EN" "http://www.w3.org/Graphics/SVG/1.1/DTD/svg11.dtd">
<svg version="1.1" id="Layer_1" xmlns="http://www.w3.org/2000/svg" xmlns:xlink="http://www.w3.org/1999/xlink" x="0px" y="0px"
	 viewBox="0 0 50 50" style="enable-background:new 0 0 50 50;" xml:space="preserve">
<g>
	<path style="fill:none;" d="M49.811,27.607l-0.001-5.022l-0.003-0.003c-0.011-1.573-1.287-2.846-2.863-2.846
		c-0.078,0-0.151,0.017-0.228,0.023H30.189V3.068c0.003-0.049,0.015-0.096,0.015-0.146c0-1.583-1.283-2.865-2.865-2.865
		c-0.102,0-0.187,0.02-0.28,0.03h-4.294c-0.099-0.01-0.196-0.03-0.298-0.03c-1.583,0-2.865,1.283-2.865,2.865
		c0,0.093,0.019,0.181,0.027,0.271l-0.001,16.565L3.202,19.756c-0.065-0.004-0.127-0.019-0.193-0.019
		c-1.582,0-2.865,1.283-2.865,2.865c0,0.124,0.021,0.242,0.036,0.361v4.315c-0.015,0.112-0.036,0.22-0.036,0.343
		c0,1.583,1.283,2.865,2.865,2.865c0.187,0,0.368-0.021,0.545-0.055l16.075,0.003l0.003,16.342c-0.011,0.101-0.03,0.199-0.03,0.302
		c0,1.583,1.283,2.866,2.865,2.866c0.239,0,0.468-0.038,0.69-0.093l3.549,0.001c0.19,0.055,0.395,0.092,0.633,0.092
		c1.582,0,2.865-1.283,2.865-2.866c0-0.039-0.01-0.075-0.011-0.113l-0.003-16.531l16.273,0.003c0.157,0.027,0.317,0.049,0.482,0.049
		c1.583,0,2.865-1.283,2.865-2.865c0-0.004-0.001-0.007-0.001-0.011L49.811,27.607z"/>
</g>
</svg>
