<?xml version="1.0" encoding="iso-8859-1"?>
<!-- Generator: Adobe Illustrator 17.1.0, SVG Export Plug-In . SVG Version: 6.00 Build 0)  -->
<!DOCTYPE svg PUBLIC "-//W3C//DTD SVG 1.1//EN" "http://www.w3.org/Graphics/SVG/1.1/DTD/svg11.dtd">
<svg version="1.1" id="Layer_1" xmlns="http://www.w3.org/2000/svg" xmlns:xlink="http://www.w3.org/1999/xlink" x="0px" y="0px"
	 viewBox="0 0 50 50" style="enable-background:new 0 0 50 50;" xml:space="preserve">
<g>
	<path style="fill:none;" d="M47.771,41.552c-1.067-2.116-6.252-4.25-10.455-5.754c-4.202-1.505-6.736-3.913-6.736-5.267
		c0-1.354,1.084-5.869,2.823-6.321c1.739-0.451,2.754-5.568,2.754-7.073c0-1.505-0.87-1.053-0.87-1.053s1.155-4.249-0.145-9.181
		c-1.715-6.505-8.868-6.893-10.076-6.912v-0.002c0,0-0.033-0.001-0.094,0c-0.063,0-0.098,0-0.098,0v0.002
		c-1.184,0.021-8.068,0.419-9.997,6.912c-1.452,4.889-0.145,9.181-0.145,9.181s-0.87-0.452-0.87,1.053
		c0,1.505,1.014,6.622,2.754,7.073c1.739,0.452,2.675,4.967,2.675,6.321c0,1.354-2.386,3.763-6.589,5.267
		c-4.202,1.505-8.464,3.497-10.455,5.754c-1.496,1.696-1.138,8.387-1.138,8.387h47.799C48.909,49.939,48.79,43.571,47.771,41.552z"
		/>
</g>
</svg>
