<?xml version="1.0" encoding="iso-8859-1"?>
<!-- Generator: Adobe Illustrator 17.1.0, SVG Export Plug-In . SVG Version: 6.00 Build 0)  -->
<!DOCTYPE svg PUBLIC "-//W3C//DTD SVG 1.1//EN" "http://www.w3.org/Graphics/SVG/1.1/DTD/svg11.dtd">
<svg version="1.1" id="Layer_1" xmlns="http://www.w3.org/2000/svg" xmlns:xlink="http://www.w3.org/1999/xlink" x="0px" y="0px"
	 viewBox="0 0 50 50" style="enable-background:new 0 0 50 50;" xml:space="preserve">
<g>
	<path style="fill:none;" d="M24.477,16.989c0.351,0.322,0.557,0.967,0.458,1.432l-0.828,3.898h6.975
		c0.316-0.022,0.644,0.027,0.884,0.166l6.472,3.737c0.412,0.238,0.672,0.05,0.577-0.416l-1.483-7.324
		c-0.095-0.466,0.118-1.109,0.471-1.428l5.554-4.999c0.354-0.319,0.256-0.624-0.217-0.678l-7.424-0.853
		c-0.473-0.054-1.018-0.454-1.212-0.889l-3.04-6.827c-0.193-0.434-0.513-0.436-0.711-0.003l-3.106,6.797
		c-0.198,0.432-0.747,0.828-1.22,0.877l-7.432,0.781c-0.474,0.05-0.574,0.354-0.223,0.676L24.477,16.989z M45.557,26.078
		c-0.975,0-1.867,0.329-2.595,0.868l-9.921,5.276l-9.267,0.021v-1.206h6.36c2,0,3.623-1.78,3.623-3.783
		c0-2.004-1.624-3.666-3.623-3.666h-1.639l0.051-0.029h-4.702l-0.006,0.029H17.45c-0.075,0-0.145,0.018-0.219,0.023h-1.015
		c-1.324,0-2.397,1.072-2.397,2.397v16.337c0,1.324,1.073,2.397,2.397,2.397h5.161c0.131,0,0.258-0.018,0.384-0.039h4.241
		c0.29,0.06,0.589,0.093,0.897,0.093c0.352,0,0.69-0.053,1.018-0.131c0.523-0.076,1.011-0.267,1.451-0.537l0.021,0.031l17.692-9.602
		c1.667-0.621,2.86-2.214,2.86-4.096C49.94,28.041,47.978,26.078,45.557,26.078z M7.693,21.124H2.532
		c-1.324,0-2.397,1.072-2.397,2.396v21.313c0,1.324,1.073,2.397,2.397,2.397h5.161c1.323,0,2.397-1.073,2.397-2.397V23.52
		C10.09,22.196,9.016,21.124,7.693,21.124z M7.596,43.463H2.648v-2.486h4.948V43.463z"/>
</g>
</svg>
