<?xml version="1.0" encoding="iso-8859-1"?>
<!-- Generator: Adobe Illustrator 17.1.0, SVG Export Plug-In . SVG Version: 6.00 Build 0)  -->
<!DOCTYPE svg PUBLIC "-//W3C//DTD SVG 1.1//EN" "http://www.w3.org/Graphics/SVG/1.1/DTD/svg11.dtd">
<svg version="1.1" id="Layer_1" xmlns="http://www.w3.org/2000/svg" xmlns:xlink="http://www.w3.org/1999/xlink" x="0px" y="0px"
	 viewBox="0 0 50 50" style="enable-background:new 0 0 50 50;" xml:space="preserve">
<g>
	<path style="fill:none;" d="M47.59,15.342c-0.573-0.658-12.156-13.63-13.146-14.754c-0.651-0.738-2.202-0.725-2.854,0
		c-0.726,0.809-12.368,13.831-13.176,14.788c-0.593,0.7,0.062,1.984,1.411,1.984h8.264l-0.033,8.625H11.522
		c-0.371-0.076-0.805-0.094-1.274-0.094H4.636c-1.338,0-2.422,1.084-2.422,2.422v19.224c0,1.337,1.084,2.422,2.422,2.422h5.613
		c1.337,0,2.421-1.084,2.421-2.422V36.189h15.687c0.001,0.005,0.004,0.026,0.004,0.026l7.635-0.068c1.337,0,2.422-1.084,2.422-2.422
		V17.36h7.754C47.396,17.36,48.307,16.164,47.59,15.342z"/>
</g>
</svg>
