<?xml version="1.0" encoding="iso-8859-1"?>
<!-- Generator: Adobe Illustrator 17.1.0, SVG Export Plug-In . SVG Version: 6.00 Build 0)  -->
<!DOCTYPE svg PUBLIC "-//W3C//DTD SVG 1.1//EN" "http://www.w3.org/Graphics/SVG/1.1/DTD/svg11.dtd">
<svg version="1.1" id="Layer_1" xmlns="http://www.w3.org/2000/svg" xmlns:xlink="http://www.w3.org/1999/xlink" x="0px" y="0px"
	 viewBox="0 0 50 50" style="enable-background:new 0 0 50 50;" xml:space="preserve">
<path style="fill-rule:evenodd;clip-rule:evenodd;fill:none;" d="M48.56,48.523c-1.828,1.829-4.793,1.829-6.621,0l-8.264-8.264
	c-3.398,2.178-7.414,3.478-11.75,3.478c-12.067,0-21.85-9.782-21.85-21.85s9.783-21.85,21.85-21.85
	c12.068,0,21.85,9.783,21.85,21.85c0,4.336-1.3,8.352-3.478,11.75l8.264,8.264C50.389,43.73,50.389,46.694,48.56,48.523z
	 M21.925,6.28c-8.62,0-15.607,6.988-15.607,15.607s6.988,15.607,15.607,15.607c8.62,0,15.607-6.987,15.607-15.607
	S30.545,6.28,21.925,6.28z"/>
</svg>
