<?xml version="1.0" encoding="iso-8859-1"?>
<!-- Generator: Adobe Illustrator 17.1.0, SVG Export Plug-In . SVG Version: 6.00 Build 0)  -->
<!DOCTYPE svg PUBLIC "-//W3C//DTD SVG 1.1//EN" "http://www.w3.org/Graphics/SVG/1.1/DTD/svg11.dtd">
<svg version="1.1" id="Layer_1" xmlns="http://www.w3.org/2000/svg" xmlns:xlink="http://www.w3.org/1999/xlink" x="0px" y="0px"
	 viewBox="0 0 50 50" style="enable-background:new 0 0 50 50;" xml:space="preserve">
<g>
	<path style="fill:none;" d="M45.289,0.069H4.809c-2.58,0-4.671,2.091-4.671,4.671v40.48c0,2.58,2.091,4.671,4.671,4.671h40.48
		c2.58,0,4.671-2.091,4.671-4.671V4.74C49.96,2.16,47.869,0.069,45.289,0.069z M26.085,12.752h12.249v10.976h-2.03v-1.617h-7.948
		v5.884c0,1.583,0.195,2.604,0.585,3.062c0.413,0.482,1.388,0.723,2.925,0.723h1.583c0.482,0,0.934-0.017,1.359-0.052
		c0.424-0.034,0.809-0.074,1.153-0.121c0.688-0.114,1.181-0.332,1.48-0.654c0.298-0.321,0.551-0.848,0.757-1.583
		c0.046-0.16,0.08-0.344,0.103-0.551l1.858,0.482c-0.229,1.881-0.86,3.109-1.892,3.682c-0.734,0.39-2.168,0.585-4.301,0.585h-3.338
		c-1.812,0-2.971-0.275-3.475-0.826c-0.551-0.504-0.826-1.674-0.826-3.51v-9.118h9.978v-5.333H26.085V12.752z M40.123,37.56
		c-0.413,0.963-0.619,1.514-0.619,1.652c-0.229,0.023-0.511,0.034-0.843,0.034c-0.333,0-0.728,0.011-1.187,0.034
		c-0.459,0.023-0.866,0.034-1.222,0.034c-0.356,0-0.671,0-0.946,0c-2.913,0-5.586-0.138-8.017-0.413
		c-1.652-0.184-3.12-0.425-4.404-0.723c-1.285-0.298-2.409-0.666-3.372-1.101c-0.734-0.321-1.434-0.717-2.099-1.187
		c-0.666-0.47-1.331-1.015-1.996-1.634c-0.23-0.206-0.47-0.447-0.723-0.723c-0.253-0.275-0.516-0.596-0.791-0.963
		c0,0.184-0.39,1.032-1.17,2.546c-0.78,1.445-1.307,2.317-1.583,2.615L9.5,36.769c0.229-0.321,0.43-0.619,0.602-0.895
		c0.172-0.275,0.315-0.527,0.43-0.757c0.413-0.711,0.774-1.411,1.084-2.099c0.31-0.688,0.59-1.365,0.843-2.03
		c0.16-0.413,0.292-0.929,0.396-1.548c0.103-0.619,0.212-1.33,0.327-2.133c0.023-0.482,0.091-1.181,0.206-2.099
		c0.298,0,0.757,0.092,1.376,0.275c0.619,0.161,0.929,0.356,0.929,0.585c0,0.138-0.058,0.264-0.172,0.378
		c-0.023,0.023-0.058,0.04-0.103,0.052c-0.046,0.012-0.092,0.04-0.138,0.086l-0.585,3.682c0.138,0.253,0.298,0.511,0.482,0.774
		c0.183,0.264,0.401,0.545,0.654,0.843l1.411,1.411V22.455h-5.987v-1.858h5.987v-3.819h-5.058v-1.961h5.058l-0.103-4.232
		c0.711,0,1.319,0.058,1.824,0.172c0.504,0.115,0.757,0.275,0.757,0.482c0,0.138-0.069,0.287-0.206,0.447l-0.241,0.241v2.89h5.265
		v1.961h-5.265v3.819h6.159v1.858h-6.159v4.404h5.746v1.927h-5.746v5.884l0.998,0.585c0.986,0.505,2.156,0.895,3.51,1.17
		c0.963,0.184,2.001,0.327,3.114,0.43c1.112,0.103,2.311,0.155,3.596,0.155l2.34,0.034c1.101,0,2.179-0.017,3.234-0.052
		c1.055-0.034,2.099-0.074,3.131-0.12c0.367,0,0.814-0.034,1.342-0.103C40.467,36.838,40.33,37.102,40.123,37.56z"/>
</g>
</svg>
