<?xml version="1.0" encoding="iso-8859-1"?>
<!-- Generator: Adobe Illustrator 17.1.0, SVG Export Plug-In . SVG Version: 6.00 Build 0)  -->
<!DOCTYPE svg PUBLIC "-//W3C//DTD SVG 1.1//EN" "http://www.w3.org/Graphics/SVG/1.1/DTD/svg11.dtd">
<svg version="1.1" id="Layer_1" xmlns="http://www.w3.org/2000/svg" xmlns:xlink="http://www.w3.org/1999/xlink" x="0px" y="0px"
	 viewBox="0 0 50 50" style="enable-background:new 0 0 50 50;" xml:space="preserve">
<g>
	<path style="fill:none;" d="M48.516,12.244c-4.696-4.144-9.711-6.567-11.706-8.33c-0.909-0.804-0.809-0.852-0.809,0.372
		c0,1.087,0,5.443,0,5.443L35.141,9.74c0,0-7.687,0-10.338,0c-0.998,0-1.266,0.678-1.266,1.654v3.705
		c0,1.015,0.254,1.616,1.31,1.616c2.663,0,10.129,0,10.129,0l1.025-0.049c0,0,0,4.623,0,5.789c0,1.398,0.268,0.874,0.839,0.351
		c2.33-2.132,9.1-6.102,11.58-8.437C50.306,12.594,50.276,13.797,48.516,12.244z M40.601,36.645
		c-4.088-2.566-6.323-3.833-6.656-3.396c-1.268,1.654-3.68,4.445-4.45,4.349c-1.965-0.246-6.552-1.596-10.975-5.773
		c-4.423-4.175-6.854-9.988-6.608-11.708c0.246-1.719,2.158-2.317,3.632-4.037c1.474-1.719,1.184-1.955,1.184-1.955
		s-1.911-3.183-3.246-6.835c-0.88-2.408-2.61-7.075-2.935-7.206c-0.572-0.23-4.122,1.158-5.761,2.101
		c-0.812,0.467-1.52,1.015-2.457,2.211c-1.695,2.162-3.946,6.077,0,17.687c4.661,13.071,19.595,23.54,25.984,25.75
		c6.388,2.212,8.891,2.629,12.185,1.355c3.305-1.279,8.108-5.319,7.891-7.286C48.335,41.41,44.555,39.129,40.601,36.645z"/>
</g>
</svg>
