<?xml version="1.0" encoding="iso-8859-1"?>
<!-- Generator: Adobe Illustrator 17.1.0, SVG Export Plug-In . SVG Version: 6.00 Build 0)  -->
<!DOCTYPE svg PUBLIC "-//W3C//DTD SVG 1.1//EN" "http://www.w3.org/Graphics/SVG/1.1/DTD/svg11.dtd">
<svg version="1.1" id="Layer_1" xmlns="http://www.w3.org/2000/svg" xmlns:xlink="http://www.w3.org/1999/xlink" x="0px" y="0px"
	 viewBox="0 0 50 50" style="enable-background:new 0 0 50 50;" xml:space="preserve">
<g>
	<path style="fill:none;" d="M40.792,14.444h-0.138C40.279,6.409,33.132-0.003,25.019-0.003c-8.113,0-15.422,6.412-15.806,14.447
		H9.107L9.102,34.778c0,0.001,0,0.002,0,0.003s0,0.002,0,0.003l0,0.631h0.035c0.371,8.034,7.687,14.449,15.807,14.449
		c8.335,0,15.843-6.753,15.843-15.083c0-0.643-0.059-1.272-0.146-1.894L40.792,14.444z M24.947,7.58
		c3.914,0,7.088,3.173,7.088,7.088s-3.173,7.088-7.088,7.088c-3.914,0-7.088-3.173-7.088-7.088S21.032,7.58,24.947,7.58z
		 M24.951,42.502c-3.914,0-7.088-3.173-7.088-7.088c0-3.914,3.173-7.088,7.088-7.088c3.914,0,7.088,3.173,7.088,7.088
		C32.038,39.328,28.865,42.502,24.951,42.502z"/>
</g>
</svg>
