<?xml version="1.0" encoding="iso-8859-1"?>
<!-- Generator: Adobe Illustrator 17.1.0, SVG Export Plug-In . SVG Version: 6.00 Build 0)  -->
<!DOCTYPE svg PUBLIC "-//W3C//DTD SVG 1.1//EN" "http://www.w3.org/Graphics/SVG/1.1/DTD/svg11.dtd">
<svg version="1.1" id="Layer_1" xmlns="http://www.w3.org/2000/svg" xmlns:xlink="http://www.w3.org/1999/xlink" x="0px" y="0px"
	 viewBox="0 0 50 50" style="enable-background:new 0 0 50 50;" xml:space="preserve">
<g>
	<path style="fill:none;" d="M45.973,45.565l-0.078-0.068c-0.002-0.001-0.003-0.003-0.005-0.004L37.773,38.4l-2.638-10.385
		c-0.006-0.101-0.016-0.201-0.034-0.298l0.008-0.008l-0.013-0.041c-0.034-0.162-0.087-0.318-0.153-0.468l-2.382-7.272l4.731,2.351
		l3.805,6.801c0.427,0.961,1.482,1.645,2.724,1.645c1.619,0,2.931-1.157,2.931-2.584c0-0.307-0.071-0.598-0.183-0.871l0.036-0.013
		l-4.61-8.147l-0.031,0.017c-0.249-0.359-0.593-0.657-1.004-0.872l0.01-0.017l-9.983-5.005c-0.474-0.29-1.047-0.463-1.668-0.463
		c-0.294,0-0.572,0.05-0.84,0.121l-1.166,0.175c2.105-1.233,3.517-3.456,3.517-6.003c0-3.882-3.267-7.028-7.296-7.028
		c-4.03,0-7.297,3.146-7.297,7.028c0,3.312,2.382,6.081,5.584,6.825l-1.125,0.168c-0.026-0.001-0.051-0.007-0.077-0.007
		c-1.151,0-2.137,0.59-2.616,1.441l-4.606,6.568c-0.106,0.052-0.21,0.106-0.307,0.169l-8.505,3.676l0.023,0.033
		c-0.848,0.453-1.421,1.266-1.421,2.205c0,1.427,1.312,2.584,2.931,2.584c0.673,0,1.285-0.208,1.78-0.544l7.899-3.45
		c0.645-0.202,1.182-0.594,1.529-1.105l3.235-4.295l1.344,6.18l-6.11,7.647c-0.612,0.474-1.006,1.16-1.006,1.934
		c0,0.07,0.017,0.136,0.023,0.205v9.821c-0.006,0.069-0.023,0.135-0.023,0.205c0,1.427,1.312,2.584,2.931,2.584
		c1.618,0,2.93-1.157,2.93-2.584c0-0.077-0.018-0.149-0.026-0.224v-9.202l5.905-7.226h3.341l2.375,9.45
		c0.008,0.04,0.019,0.078,0.029,0.117l0.016,0.064l0.006-0.001c0.128,0.432,0.373,0.822,0.714,1.135l-0.009,0.007l8.599,7.546
		c0.105,0.109,0.219,0.209,0.343,0.301l0.008,0.007l0.001-0.001c0.509,0.376,1.156,0.611,1.872,0.611
		c1.619,0,2.931-1.157,2.931-2.584c0-0.678-0.302-1.29-0.786-1.75L45.973,45.565z"/>
</g>
</svg>
